{"glyphs":{"0":{"ha":972,"x_min":0,"x_max":0,"o":"m 694 833 l 694 972 l 139 972 l 139 833 l 0 833 l 0 139 l 139 139 l 139 0 l 694 0 l 694 139 l 833 139 l 833 833 z m 278 833 l 556 833 l 556 694 l 417 694 l 417 556 l 278 556 z m 556 139 l 278 139 l 278 278 l 417 278 l 417 417 l 556 417 z "},"1":{"ha":972,"x_min":0,"x_max":0,"o":"m 833 139 l 556 139 l 556 972 l 278 972 l 278 833 l 139 833 l 139 694 l 278 694 l 278 139 l 0 139 l 0 0 l 833 0 z "},"2":{"ha":972,"x_min":0,"x_max":0,"o":"m 694 833 l 694 972 l 139 972 l 139 833 l 0 833 l 0 694 l 278 694 l 278 833 l 556 833 l 556 556 l 278 556 l 278 417 l 139 417 l 139 278 l 0 278 l 0 0 l 833 0 l 833 278 l 556 278 l 556 139 l 278 139 l 278 278 l 417 278 l 417 417 l 694 417 l 694 556 l 833 556 l 833 833 z "},"3":{"ha":972,"x_min":0,"x_max":0,"o":"m 694 833 l 694 972 l 139 972 l 139 833 l 0 833 l 0 694 l 278 694 l 278 833 l 556 833 l 556 556 l 278 556 l 278 417 l 556 417 l 556 139 l 278 139 l 278 278 l 0 278 l 0 139 l 139 139 l 139 0 l 694 0 l 694 139 l 833 139 l 833 417 l 694 417 l 694 556 l 833 556 l 833 833 z "},"4":{"ha":972,"x_min":0,"x_max":0,"o":"m 833 972 l 417 972 l 417 833 l 278 833 l 278 694 l 139 694 l 139 556 l 0 556 l 0 278 l 556 278 l 556 0 l 833 0 z m 556 417 l 278 417 l 278 556 l 417 556 l 417 694 l 556 694 z "},"5":{"ha":972,"x_min":0,"x_max":0,"o":"m 278 833 l 833 833 l 833 972 l 0 972 l 0 556 l 556 556 l 556 139 l 278 139 l 278 278 l 0 278 l 0 139 l 139 139 l 139 0 l 694 0 l 694 139 l 833 139 l 833 556 l 694 556 l 694 694 l 278 694 z "},"6":{"ha":972,"x_min":0,"x_max":0,"o":"m 694 417 l 694 556 l 278 556 l 278 694 l 417 694 l 417 833 l 694 833 l 694 972 l 278 972 l 278 833 l 139 833 l 139 694 l 0 694 l 0 139 l 139 139 l 139 0 l 694 0 l 694 139 l 833 139 l 833 417 z m 556 139 l 278 139 l 278 417 l 556 417 z "},"7":{"ha":972,"x_min":0,"x_max":0,"o":"m 833 972 l 0 972 l 0 694 l 278 694 l 278 833 l 556 833 l 556 556 l 417 556 l 417 417 l 278 417 l 278 0 l 556 0 l 556 417 l 694 417 l 694 556 l 833 556 z "},"8":{"ha":972,"x_min":0,"x_max":0,"o":"m 694 833 l 694 972 l 139 972 l 139 833 l 0 833 l 0 556 l 139 556 l 139 417 l 0 417 l 0 139 l 139 139 l 139 0 l 694 0 l 694 139 l 833 139 l 833 417 l 694 417 l 694 556 l 833 556 l 833 833 z m 556 556 l 278 556 l 278 833 l 556 833 z m 556 417 l 556 139 l 278 139 l 278 417 z "},"9":{"ha":972,"x_min":0,"x_max":0,"o":"m 694 833 l 694 972 l 139 972 l 139 833 l 0 833 l 0 556 l 139 556 l 139 417 l 556 417 l 556 278 l 417 278 l 417 139 l 139 139 l 139 0 l 556 0 l 556 139 l 694 139 l 694 278 l 833 278 l 833 833 z m 556 556 l 278 556 l 278 833 l 556 833 z "},"A":{"ha":972,"x_min":0,"x_max":0,"o":"m 694 833 l 694 972 l 139 972 l 139 833 l 0 833 l 0 0 l 278 0 l 278 556 l 556 556 l 556 0 l 833 0 l 833 833 z m 556 694 l 278 694 l 278 833 l 556 833 z "},"Ä":{"ha":972,"x_min":0,"x_max":0,"o":"m 833 833 l 833 972 l 556 972 l 556 833 l 278 833 l 278 972 l 0 972 l 0 833 l 139 833 l 139 694 l 0 694 l 0 0 l 278 0 l 278 417 l 556 417 l 556 0 l 833 0 l 833 694 l 694 694 l 694 833 z m 556 556 l 278 556 l 278 694 l 556 694 z "},"Å":{"ha":972,"x_min":0,"x_max":0,"o":"m 556 833 l 556 972 l 278 972 l 278 833 z m 694 556 l 694 694 l 139 694 l 139 556 l 0 556 l 0 0 l 278 0 l 278 278 l 556 278 l 556 0 l 833 0 l 833 556 z m 556 417 l 278 417 l 278 556 l 556 556 z "},"Æ":{"ha":972,"x_min":0,"x_max":0,"o":"m 556 833 l 833 833 l 833 972 l 139 972 l 139 833 l 0 833 l 0 0 l 833 0 l 833 139 l 556 139 l 556 556 l 694 556 l 694 694 l 556 694 z "},"B":{"ha":972,"x_min":0,"x_max":0,"o":"m 833 694 l 833 833 l 694 833 l 694 972 l 0 972 l 0 0 l 694 0 l 694 139 l 833 139 l 833 556 l 694 556 l 694 694 z m 556 694 l 278 694 l 278 833 l 556 833 z m 556 556 l 556 139 l 278 139 l 278 556 z "},"C":{"ha":972,"x_min":0,"x_max":0,"o":"m 556 694 l 833 694 l 833 833 l 694 833 l 694 972 l 139 972 l 139 833 l 0 833 l 0 139 l 139 139 l 139 0 l 694 0 l 694 139 l 833 139 l 833 278 l 556 278 l 556 139 l 278 139 l 278 833 l 556 833 z "},"Ç":{"ha":972,"x_min":0,"x_max":0,"o":"m 556 694 l 833 694 l 833 833 l 694 833 l 694 972 l 139 972 l 139 833 l 0 833 l 0 139 l 139 139 l 139 0 l 556 0 l 556 -139 l 278 -139 l 278 -278 l 694 -278 l 694 -139 l 833 -139 l 833 278 l 556 278 l 556 139 l 278 139 l 278 833 l 556 833 z "},"D":{"ha":972,"x_min":0,"x_max":0,"o":"m 694 833 l 694 972 l 0 972 l 0 0 l 694 0 l 694 139 l 833 139 l 833 833 z m 556 139 l 278 139 l 278 833 l 556 833 z "},"E":{"ha":972,"x_min":0,"x_max":0,"o":"m 278 833 l 833 833 l 833 972 l 0 972 l 0 0 l 833 0 l 833 139 l 278 139 l 278 556 l 556 556 l 556 694 l 278 694 z "},"F":{"ha":972,"x_min":0,"x_max":0,"o":"m 833 972 l 0 972 l 0 0 l 278 0 l 278 556 l 556 556 l 556 694 l 278 694 l 278 833 l 833 833 z "},"G":{"ha":972,"x_min":0,"x_max":0,"o":"m 278 139 l 278 833 l 833 833 l 833 972 l 139 972 l 139 833 l 0 833 l 0 139 l 139 139 l 139 0 l 694 0 l 694 139 l 833 139 l 833 694 l 417 694 l 417 556 l 556 556 l 556 139 z "},"H":{"ha":972,"x_min":0,"x_max":0,"o":"m 833 972 l 556 972 l 556 694 l 278 694 l 278 972 l 0 972 l 0 0 l 278 0 l 278 556 l 556 556 l 556 0 l 833 0 z "},"I":{"ha":694,"x_min":0,"x_max":0,"o":"m 417 139 l 417 833 l 556 833 l 556 972 l 0 972 l 0 833 l 139 833 l 139 139 l 0 139 l 0 0 l 556 0 l 556 139 z "},"J":{"ha":972,"x_min":0,"x_max":0,"o":"m 833 972 l 556 972 l 556 139 l 278 139 l 278 278 l 0 278 l 0 139 l 139 139 l 139 0 l 694 0 l 694 139 l 833 139 z "},"K":{"ha":972,"x_min":0,"x_max":0,"o":"m 694 694 l 694 833 l 833 833 l 833 972 l 556 972 l 556 833 l 417 833 l 417 694 l 278 694 l 278 972 l 0 972 l 0 0 l 278 0 l 278 556 l 417 556 l 417 417 l 556 417 l 556 0 l 833 0 l 833 417 l 694 417 l 694 556 l 556 556 l 556 694 z "},"L":{"ha":972,"x_min":0,"x_max":0,"o":"m 833 139 l 278 139 l 278 972 l 0 972 l 0 0 l 833 0 z "},"M":{"ha":972,"x_min":0,"x_max":0,"o":"m 833 972 l 556 972 l 556 833 l 278 833 l 278 972 l 0 972 l 0 0 l 278 0 l 278 556 l 556 556 l 556 0 l 833 0 z "},"N":{"ha":972,"x_min":0,"x_max":0,"o":"m 833 972 l 556 972 l 556 694 l 417 694 l 417 833 l 278 833 l 278 972 l 0 972 l 0 0 l 278 0 l 278 556 l 417 556 l 417 417 l 556 417 l 556 0 l 833 0 z "},"Ñ":{"ha":972,"x_min":0,"x_max":0,"o":"m 833 972 l 0 972 l 0 833 l 833 833 z m 556 694 l 556 417 l 417 417 l 417 556 l 278 556 l 278 694 l 0 694 l 0 0 l 278 0 l 278 278 l 417 278 l 417 139 l 556 139 l 556 0 l 833 0 l 833 694 z "},"O":{"ha":972,"x_min":0,"x_max":0,"o":"m 694 833 l 694 972 l 139 972 l 139 833 l 0 833 l 0 139 l 139 139 l 139 0 l 694 0 l 694 139 l 833 139 l 833 833 z m 556 139 l 278 139 l 278 833 l 556 833 z "},"Ø":{"ha":972,"x_min":0,"x_max":0,"o":"m 694 833 l 694 972 l 139 972 l 139 833 l 0 833 l 0 139 l 139 139 l 139 0 l 694 0 l 694 139 l 833 139 l 833 833 z m 278 833 l 556 833 l 556 694 l 417 694 l 417 556 l 278 556 z m 556 139 l 278 139 l 278 278 l 417 278 l 417 417 l 556 417 z "},"P":{"ha":972,"x_min":0,"x_max":0,"o":"m 694 833 l 694 972 l 0 972 l 0 0 l 278 0 l 278 556 l 694 556 l 694 694 l 833 694 l 833 833 z m 556 694 l 278 694 l 278 833 l 556 833 z "},"Q":{"ha":972,"x_min":0,"x_max":0,"o":"m 694 833 l 694 972 l 139 972 l 139 833 l 0 833 l 0 139 l 139 139 l 139 0 l 833 0 l 833 139 l 694 139 l 694 278 l 833 278 l 833 833 z m 417 278 l 417 139 l 278 139 l 278 833 l 556 833 l 556 278 z "},"R":{"ha":972,"x_min":0,"x_max":0,"o":"m 833 694 l 833 833 l 694 833 l 694 972 l 0 972 l 0 0 l 278 0 l 278 556 l 556 556 l 556 0 l 833 0 l 833 556 l 694 556 l 694 694 z m 556 694 l 278 694 l 278 833 l 556 833 z "},"S":{"ha":972,"x_min":0,"x_max":0,"o":"m 278 833 l 833 833 l 833 972 l 139 972 l 139 833 l 0 833 l 0 694 l 139 694 l 139 556 l 556 556 l 556 139 l 278 139 l 278 278 l 0 278 l 0 139 l 139 139 l 139 0 l 694 0 l 694 139 l 833 139 l 833 556 l 694 556 l 694 694 l 278 694 z "},"T":{"ha":972,"x_min":0,"x_max":0,"o":"m 833 972 l 0 972 l 0 833 l 278 833 l 278 0 l 556 0 l 556 833 l 833 833 z "},"U":{"ha":972,"x_min":0,"x_max":0,"o":"m 833 972 l 556 972 l 556 139 l 278 139 l 278 972 l 0 972 l 0 139 l 139 139 l 139 0 l 694 0 l 694 139 l 833 139 z "},"Ü":{"ha":972,"x_min":0,"x_max":0,"o":"m 278 833 l 278 972 l 0 972 l 0 833 z m 833 972 l 556 972 l 556 833 l 833 833 z m 556 694 l 556 139 l 278 139 l 278 694 l 0 694 l 0 139 l 139 139 l 139 0 l 694 0 l 694 139 l 833 139 l 833 694 z "},"V":{"ha":972,"x_min":0,"x_max":0,"o":"m 833 972 l 556 972 l 556 417 l 278 417 l 278 972 l 0 972 l 0 417 l 139 417 l 139 139 l 278 139 l 278 0 l 556 0 l 556 139 l 694 139 l 694 417 l 833 417 z "},"W":{"ha":972,"x_min":0,"x_max":0,"o":"m 833 972 l 556 972 l 556 417 l 278 417 l 278 972 l 0 972 l 0 0 l 278 0 l 278 139 l 556 139 l 556 0 l 833 0 z "},"X":{"ha":972,"x_min":0,"x_max":0,"o":"m 694 694 l 694 833 l 833 833 l 833 972 l 556 972 l 556 833 l 278 833 l 278 972 l 0 972 l 0 833 l 139 833 l 139 694 l 278 694 l 278 556 l 139 556 l 139 417 l 0 417 l 0 0 l 278 0 l 278 417 l 556 417 l 556 0 l 833 0 l 833 417 l 694 417 l 694 556 l 556 556 l 556 694 z "},"Y":{"ha":972,"x_min":0,"x_max":0,"o":"m 833 972 l 556 972 l 556 833 l 278 833 l 278 972 l 0 972 l 0 833 l 139 833 l 139 694 l 278 694 l 278 0 l 556 0 l 556 694 l 694 694 l 694 833 l 833 833 z "},"Z":{"ha":972,"x_min":0,"x_max":0,"o":"m 833 972 l 0 972 l 0 833 l 556 833 l 556 694 l 417 694 l 417 556 l 278 556 l 278 417 l 139 417 l 139 278 l 0 278 l 0 0 l 833 0 l 833 139 l 278 139 l 278 278 l 417 278 l 417 417 l 556 417 l 556 556 l 694 556 l 694 694 l 833 694 z "},"a":{"ha":972,"x_min":0,"x_max":0,"o":"m 694 556 l 694 694 l 139 694 l 139 556 l 556 556 l 556 417 l 139 417 l 139 278 l 0 278 l 0 139 l 139 139 l 139 0 l 833 0 l 833 556 z m 556 139 l 278 139 l 278 278 l 556 278 z "},"á":{"ha":972,"x_min":0,"x_max":0,"o":"m 833 972 l 417 972 l 417 833 l 833 833 z m 694 694 l 139 694 l 139 556 l 556 556 l 556 417 l 139 417 l 139 278 l 0 278 l 0 139 l 139 139 l 139 0 l 833 0 l 833 556 l 694 556 z m 556 139 l 278 139 l 278 278 l 556 278 z "},"â":{"ha":972,"x_min":0,"x_max":0,"o":"m 833 694 l 833 833 l 694 833 l 694 972 l 139 972 l 139 833 l 0 833 l 0 694 l 139 694 l 139 556 l 556 556 l 556 417 l 139 417 l 139 278 l 0 278 l 0 139 l 139 139 l 139 0 l 833 0 l 833 556 l 694 556 l 694 694 z m 556 694 l 278 694 l 278 833 l 556 833 z m 556 139 l 278 139 l 278 278 l 556 278 z "},"à":{"ha":972,"x_min":0,"x_max":0,"o":"m 0 833 l 417 833 l 417 972 l 0 972 z m 694 556 l 694 694 l 139 694 l 139 556 l 556 556 l 556 417 l 139 417 l 139 278 l 0 278 l 0 139 l 139 139 l 139 0 l 833 0 l 833 556 z m 556 139 l 278 139 l 278 278 l 556 278 z "},"å":{"ha":972,"x_min":0,"x_max":0,"o":"m 556 833 l 556 972 l 278 972 l 278 833 z m 694 556 l 694 694 l 139 694 l 139 556 l 556 556 l 556 417 l 139 417 l 139 278 l 0 278 l 0 139 l 139 139 l 139 0 l 833 0 l 833 556 z m 556 139 l 278 139 l 278 278 l 556 278 z "},"æ":{"ha":972,"x_min":0,"x_max":0,"o":"m 694 278 l 694 417 l 833 417 l 833 556 l 694 556 l 694 694 l 139 694 l 139 556 l 278 556 l 278 417 l 139 417 l 139 278 l 0 278 l 0 139 l 139 139 l 139 0 l 833 0 l 833 139 l 556 139 l 556 278 z "},"b":{"ha":972,"x_min":0,"x_max":0,"o":"m 694 556 l 694 694 l 278 694 l 278 972 l 0 972 l 0 0 l 694 0 l 694 139 l 833 139 l 833 556 z m 556 139 l 278 139 l 278 417 l 417 417 l 417 556 l 556 556 z "},"c":{"ha":972,"x_min":0,"x_max":0,"o":"m 556 417 l 833 417 l 833 556 l 694 556 l 694 694 l 139 694 l 139 556 l 0 556 l 0 139 l 139 139 l 139 0 l 694 0 l 694 139 l 833 139 l 833 278 l 556 278 l 556 139 l 278 139 l 278 556 l 556 556 z "},"ç":{"ha":972,"x_min":0,"x_max":0,"o":"m 556 417 l 833 417 l 833 556 l 694 556 l 694 694 l 139 694 l 139 556 l 0 556 l 0 139 l 139 139 l 139 0 l 556 0 l 556 -139 l 278 -139 l 278 -278 l 694 -278 l 694 -139 l 833 -139 l 833 278 l 556 278 l 556 139 l 278 139 l 278 556 l 556 556 z "},"d":{"ha":972,"x_min":0,"x_max":0,"o":"m 833 972 l 556 972 l 556 694 l 139 694 l 139 556 l 0 556 l 0 139 l 139 139 l 139 0 l 833 0 z m 556 139 l 278 139 l 278 556 l 417 556 l 417 417 l 556 417 z "},"e":{"ha":972,"x_min":0,"x_max":0,"o":"m 694 556 l 694 694 l 139 694 l 139 556 l 0 556 l 0 139 l 139 139 l 139 0 l 833 0 l 833 139 l 278 139 l 278 278 l 833 278 l 833 556 z m 556 417 l 278 417 l 278 556 l 556 556 z "},"ê":{"ha":972,"x_min":0,"x_max":0,"o":"m 833 694 l 833 833 l 694 833 l 694 972 l 139 972 l 139 833 l 0 833 l 0 694 l 139 694 l 139 556 l 0 556 l 0 139 l 139 139 l 139 0 l 833 0 l 833 139 l 278 139 l 278 278 l 833 278 l 833 556 l 694 556 l 694 694 z m 556 694 l 278 694 l 278 833 l 556 833 z m 556 417 l 278 417 l 278 556 l 556 556 z "},"ë":{"ha":972,"x_min":0,"x_max":0,"o":"m 139 833 l 694 833 l 694 972 l 139 972 z m 694 556 l 694 694 l 139 694 l 139 556 l 0 556 l 0 139 l 139 139 l 139 0 l 833 0 l 833 139 l 278 139 l 278 278 l 833 278 l 833 556 z m 556 417 l 278 417 l 278 556 l 556 556 z "},"f":{"ha":833,"x_min":0,"x_max":0,"o":"m 417 833 l 694 833 l 694 972 l 278 972 l 278 833 l 139 833 l 139 694 l 0 694 l 0 556 l 139 556 l 139 0 l 417 0 l 417 556 l 694 556 l 694 694 l 417 694 z "},"g":{"ha":972,"x_min":0,"x_max":0,"o":"m 833 694 l 139 694 l 139 556 l 0 556 l 0 278 l 139 278 l 139 139 l 556 139 l 556 0 l 0 0 l 0 -139 l 694 -139 l 694 0 l 833 0 z m 556 278 l 278 278 l 278 556 l 556 556 z "},"h":{"ha":972,"x_min":0,"x_max":0,"o":"m 694 556 l 694 694 l 278 694 l 278 972 l 0 972 l 0 0 l 278 0 l 278 417 l 417 417 l 417 556 l 556 556 l 556 0 l 833 0 l 833 556 z "},"i":{"ha":417,"x_min":0,"x_max":0,"o":"m 278 972 l 0 972 l 0 833 l 278 833 z m 0 694 l 0 0 l 278 0 l 278 694 z "},"í":{"ha":556,"x_min":0,"x_max":0,"o":"m 417 972 l 0 972 l 0 833 l 417 833 z m 0 694 l 0 0 l 278 0 l 278 694 z "},"î":{"ha":694,"x_min":0,"x_max":0,"o":"m 556 972 l 0 972 l 0 833 l 556 833 z m 139 694 l 139 0 l 417 0 l 417 694 z "},"j":{"ha":972,"x_min":0,"x_max":0,"o":"m 833 972 l 556 972 l 556 833 l 833 833 z m 556 694 l 556 0 l 278 0 l 278 139 l 0 139 l 0 0 l 139 0 l 139 -139 l 694 -139 l 694 0 l 833 0 l 833 694 z "},"k":{"ha":833,"x_min":0,"x_max":0,"o":"m 556 417 l 556 556 l 694 556 l 694 694 l 417 694 l 417 556 l 278 556 l 278 972 l 0 972 l 0 0 l 278 0 l 278 139 l 417 139 l 417 0 l 694 0 l 694 139 l 556 139 l 556 278 l 417 278 l 417 417 z "},"l":{"ha":556,"x_min":0,"x_max":0,"o":"m 278 139 l 278 972 l 0 972 l 0 139 l 139 139 l 139 0 l 417 0 l 417 139 z "},"m":{"ha":972,"x_min":0,"x_max":0,"o":"m 694 556 l 694 694 l 0 694 l 0 0 l 278 0 l 278 278 l 556 278 l 556 0 l 833 0 l 833 556 z "},"n":{"ha":972,"x_min":0,"x_max":0,"o":"m 694 556 l 694 694 l 0 694 l 0 0 l 278 0 l 278 556 l 556 556 l 556 0 l 833 0 l 833 556 z "},"ñ":{"ha":972,"x_min":0,"x_max":0,"o":"m 833 972 l 0 972 l 0 833 l 833 833 z m 694 694 l 0 694 l 0 0 l 278 0 l 278 556 l 556 556 l 556 0 l 833 0 l 833 556 l 694 556 z "},"o":{"ha":972,"x_min":0,"x_max":0,"o":"m 694 556 l 694 694 l 139 694 l 139 556 l 0 556 l 0 139 l 139 139 l 139 0 l 694 0 l 694 139 l 833 139 l 833 556 z m 556 139 l 278 139 l 278 556 l 556 556 z "},"ó":{"ha":972,"x_min":0,"x_max":0,"o":"m 833 972 l 417 972 l 417 833 l 833 833 z m 694 694 l 139 694 l 139 556 l 0 556 l 0 139 l 139 139 l 139 0 l 694 0 l 694 139 l 833 139 l 833 556 l 694 556 z m 556 556 l 556 139 l 278 139 l 278 556 z "},"ô":{"ha":972,"x_min":0,"x_max":0,"o":"m 833 694 l 833 833 l 694 833 l 694 972 l 139 972 l 139 833 l 0 833 l 0 694 l 139 694 l 139 556 l 0 556 l 0 139 l 139 139 l 139 0 l 694 0 l 694 139 l 833 139 l 833 556 l 694 556 l 694 694 z m 556 694 l 278 694 l 278 833 l 556 833 z m 556 556 l 556 139 l 278 139 l 278 556 z "},"ö":{"ha":972,"x_min":0,"x_max":0,"o":"m 139 833 l 694 833 l 694 972 l 139 972 z m 694 556 l 694 694 l 139 694 l 139 556 l 0 556 l 0 139 l 139 139 l 139 0 l 694 0 l 694 139 l 833 139 l 833 556 z m 556 139 l 278 139 l 278 556 l 556 556 z "},"ò":{"ha":972,"x_min":0,"x_max":0,"o":"m 0 833 l 417 833 l 417 972 l 0 972 z m 694 556 l 694 694 l 139 694 l 139 556 l 0 556 l 0 139 l 139 139 l 139 0 l 694 0 l 694 139 l 833 139 l 833 556 z m 556 139 l 278 139 l 278 556 l 556 556 z "},"ø":{"ha":972,"x_min":0,"x_max":0,"o":"m 694 556 l 694 694 l 139 694 l 139 556 l 0 556 l 0 139 l 139 139 l 139 0 l 278 0 l 278 -139 l 556 -139 l 556 0 l 694 0 l 694 139 l 833 139 l 833 556 z m 417 556 l 417 417 l 278 417 l 278 556 z m 417 139 l 417 278 l 556 278 l 556 139 z "},"p":{"ha":972,"x_min":0,"x_max":0,"o":"m 694 556 l 694 694 l 0 694 l 0 -139 l 278 -139 l 278 139 l 694 139 l 694 278 l 833 278 l 833 556 z m 556 278 l 278 278 l 278 417 l 417 417 l 417 556 l 556 556 z "},"q":{"ha":972,"x_min":0,"x_max":0,"o":"m 833 694 l 139 694 l 139 556 l 0 556 l 0 278 l 139 278 l 139 139 l 556 139 l 556 -139 l 833 -139 z m 556 278 l 278 278 l 278 556 l 417 556 l 417 417 l 556 417 z "},"r":{"ha":972,"x_min":0,"x_max":0,"o":"m 694 556 l 694 694 l 0 694 l 0 0 l 278 0 l 278 417 l 417 417 l 417 556 l 556 556 l 556 417 l 833 417 l 833 556 z "},"s":{"ha":972,"x_min":0,"x_max":0,"o":"m 278 556 l 833 556 l 833 694 l 139 694 l 139 556 l 0 556 l 0 417 l 139 417 l 139 278 l 556 278 l 556 139 l 0 139 l 0 0 l 694 0 l 694 139 l 833 139 l 833 278 l 694 278 l 694 417 l 278 417 z "},"t":{"ha":694,"x_min":0,"x_max":0,"o":"m 417 139 l 417 556 l 556 556 l 556 694 l 417 694 l 417 972 l 139 972 l 139 694 l 0 694 l 0 556 l 139 556 l 139 139 l 278 139 l 278 0 l 556 0 l 556 139 z "},"u":{"ha":972,"x_min":0,"x_max":0,"o":"m 833 694 l 556 694 l 556 139 l 278 139 l 278 694 l 0 694 l 0 139 l 139 139 l 139 0 l 833 0 z "},"ú":{"ha":972,"x_min":0,"x_max":0,"o":"m 833 972 l 417 972 l 417 833 l 833 833 z m 556 694 l 556 139 l 278 139 l 278 694 l 0 694 l 0 139 l 139 139 l 139 0 l 833 0 l 833 694 z "},"û":{"ha":972,"x_min":0,"x_max":0,"o":"m 694 833 l 694 972 l 139 972 l 139 833 l 0 833 l 0 694 l 278 694 l 278 833 l 556 833 l 556 694 l 833 694 l 833 833 z m 556 556 l 556 139 l 278 139 l 278 556 l 0 556 l 0 139 l 139 139 l 139 0 l 833 0 l 833 556 z "},"ü":{"ha":972,"x_min":0,"x_max":0,"o":"m 139 833 l 694 833 l 694 972 l 139 972 z m 833 694 l 556 694 l 556 139 l 278 139 l 278 694 l 0 694 l 0 139 l 139 139 l 139 0 l 833 0 z "},"ù":{"ha":972,"x_min":0,"x_max":0,"o":"m 0 833 l 417 833 l 417 972 l 0 972 z m 833 694 l 556 694 l 556 139 l 278 139 l 278 694 l 0 694 l 0 139 l 139 139 l 139 0 l 833 0 z "},"v":{"ha":972,"x_min":0,"x_max":0,"o":"m 833 694 l 556 694 l 556 278 l 278 278 l 278 694 l 0 694 l 0 278 l 139 278 l 139 139 l 278 139 l 278 0 l 556 0 l 556 139 l 694 139 l 694 278 l 833 278 z "},"w":{"ha":972,"x_min":0,"x_max":0,"o":"m 833 694 l 556 694 l 556 417 l 278 417 l 278 694 l 0 694 l 0 139 l 139 139 l 139 0 l 833 0 z "},"x":{"ha":972,"x_min":0,"x_max":0,"o":"m 694 417 l 694 556 l 833 556 l 833 694 l 556 694 l 556 556 l 278 556 l 278 694 l 0 694 l 0 556 l 139 556 l 139 417 l 278 417 l 278 278 l 139 278 l 139 139 l 0 139 l 0 0 l 278 0 l 278 139 l 556 139 l 556 0 l 833 0 l 833 139 l 694 139 l 694 278 l 556 278 l 556 417 z "},"y":{"ha":972,"x_min":0,"x_max":0,"o":"m 833 694 l 556 694 l 556 278 l 278 278 l 278 694 l 0 694 l 0 278 l 139 278 l 139 139 l 556 139 l 556 0 l 0 0 l 0 -139 l 694 -139 l 694 0 l 833 0 z "},"ÿ":{"ha":972,"x_min":0,"x_max":0,"o":"m 139 833 l 694 833 l 694 972 l 139 972 z m 833 694 l 556 694 l 556 278 l 278 278 l 278 694 l 0 694 l 0 278 l 139 278 l 139 139 l 556 139 l 556 0 l 0 0 l 0 -139 l 694 -139 l 694 0 l 833 0 z "},"z":{"ha":972,"x_min":0,"x_max":0,"o":"m 556 278 l 556 417 l 694 417 l 694 556 l 833 556 l 833 694 l 0 694 l 0 556 l 417 556 l 417 417 l 278 417 l 278 278 l 139 278 l 139 139 l 0 139 l 0 0 l 833 0 l 833 139 l 417 139 l 417 278 z "},"Ω":{"ha":972,"x_min":0,"x_max":0,"o":"m 694 833 l 694 972 l 139 972 l 139 833 l 0 833 l 0 278 l 139 278 l 139 139 l 0 139 l 0 0 l 833 0 l 833 139 l 694 139 l 694 278 l 833 278 l 833 833 z m 556 278 l 278 278 l 278 833 l 556 833 z "},".":{"ha":417,"x_min":0,"x_max":0,"o":"m 278 278 l 0 278 l 0 0 l 278 0 z "},",":{"ha":417,"x_min":0,"x_max":0,"o":"m 278 278 l 0 278 l 0 -139 l 278 -139 z "},":":{"ha":417,"x_min":0,"x_max":0,"o":"m 278 833 l 0 833 l 0 556 l 278 556 z m 0 278 l 0 0 l 278 0 l 278 278 z "},";":{"ha":417,"x_min":0,"x_max":0,"o":"m 278 833 l 0 833 l 0 556 l 278 556 z m 0 278 l 0 -139 l 278 -139 l 278 278 z "},"!":{"ha":417,"x_min":0,"x_max":0,"o":"m 278 972 l 0 972 l 0 278 l 278 278 z m 0 139 l 0 0 l 278 0 l 278 139 z "},"¡":{"ha":417,"x_min":0,"x_max":0,"o":"m 278 833 l 0 833 l 0 694 l 278 694 z m 0 556 l 0 0 l 278 0 l 278 556 z "},"?":{"ha":972,"x_min":0,"x_max":0,"o":"m 694 833 l 694 972 l 139 972 l 139 833 l 0 833 l 0 694 l 278 694 l 278 833 l 556 833 l 556 556 l 417 556 l 417 417 l 278 417 l 278 278 l 556 278 l 556 417 l 694 417 l 694 556 l 833 556 l 833 833 z m 278 139 l 278 0 l 556 0 l 556 139 z "},"¿":{"ha":972,"x_min":0,"x_max":0,"o":"m 556 833 l 556 972 l 278 972 l 278 833 z m 833 278 l 556 278 l 556 139 l 278 139 l 278 417 l 417 417 l 417 556 l 556 556 l 556 694 l 278 694 l 278 556 l 139 556 l 139 417 l 0 417 l 0 139 l 139 139 l 139 0 l 694 0 l 694 139 l 833 139 z "},"·":{"ha":556,"x_min":0,"x_max":0,"o":"m 417 556 l 0 556 l 0 278 l 417 278 z "},"•":{"ha":556,"x_min":0,"x_max":0,"o":"m 417 556 l 0 556 l 0 278 l 417 278 z "},"*":{"ha":833,"x_min":0,"x_max":0,"o":"m 694 556 l 694 694 l 417 694 l 417 556 l 278 556 l 278 694 l 0 694 l 0 556 l 139 556 l 139 417 l 0 417 l 0 278 l 278 278 l 278 417 l 417 417 l 417 278 l 694 278 l 694 417 l 556 417 l 556 556 z "},"#":{"ha":972,"x_min":0,"x_max":0,"o":"m 833 556 l 833 694 l 694 694 l 694 972 l 139 972 l 139 694 l 0 694 l 0 556 l 139 556 l 139 417 l 0 417 l 0 278 l 139 278 l 139 0 l 694 0 l 694 278 l 833 278 l 833 417 l 694 417 l 694 556 z "},"/":{"ha":972,"x_min":0,"x_max":0,"o":"m 833 972 l 556 972 l 556 833 l 417 833 l 417 556 l 278 556 l 278 417 l 139 417 l 139 139 l 0 139 l 0 0 l 278 0 l 278 139 l 417 139 l 417 417 l 556 417 l 556 556 l 694 556 l 694 833 l 833 833 z "},"\\":{"ha":972,"x_min":0,"x_max":0,"o":"m 694 139 l 694 417 l 556 417 l 556 556 l 417 556 l 417 833 l 278 833 l 278 972 l 0 972 l 0 833 l 139 833 l 139 556 l 278 556 l 278 417 l 417 417 l 417 139 l 556 139 l 556 0 l 833 0 l 833 139 z "},"(":{"ha":833,"x_min":0,"x_max":0,"o":"m 278 278 l 278 694 l 417 694 l 417 833 l 694 833 l 694 972 l 278 972 l 278 833 l 139 833 l 139 694 l 0 694 l 0 278 l 139 278 l 139 139 l 278 139 l 278 0 l 694 0 l 694 139 l 417 139 l 417 278 z "},")":{"ha":833,"x_min":0,"x_max":0,"o":"m 556 694 l 556 833 l 417 833 l 417 972 l 0 972 l 0 833 l 278 833 l 278 694 l 417 694 l 417 278 l 278 278 l 278 139 l 0 139 l 0 0 l 417 0 l 417 139 l 556 139 l 556 278 l 694 278 l 694 694 z "},"{":{"ha":833,"x_min":0,"x_max":0,"o":"m 417 556 l 417 833 l 694 833 l 694 972 l 278 972 l 278 833 l 139 833 l 139 556 l 0 556 l 0 417 l 139 417 l 139 139 l 278 139 l 278 0 l 694 0 l 694 139 l 417 139 l 417 417 l 278 417 l 278 556 z "},"}":{"ha":833,"x_min":0,"x_max":0,"o":"m 556 556 l 556 833 l 417 833 l 417 972 l 0 972 l 0 833 l 278 833 l 278 556 l 417 556 l 417 417 l 278 417 l 278 139 l 0 139 l 0 0 l 417 0 l 417 139 l 556 139 l 556 417 l 694 417 l 694 556 z "},"[":{"ha":694,"x_min":0,"x_max":0,"o":"m 278 139 l 278 833 l 556 833 l 556 972 l 0 972 l 0 0 l 556 0 l 556 139 z "},"]":{"ha":694,"x_min":0,"x_max":0,"o":"m 556 972 l 0 972 l 0 833 l 278 833 l 278 139 l 0 139 l 0 0 l 556 0 z "},"-":{"ha":972,"x_min":0,"x_max":0,"o":"m 833 556 l 0 556 l 0 417 l 833 417 z "},"­":{"ha":556,"x_min":0,"x_max":0,"o":"m 417 556 l 0 556 l 0 417 l 417 417 z "},"—":{"ha":972,"x_min":0,"x_max":0,"o":"m 833 556 l 0 556 l 0 417 l 833 417 z "},"_":{"ha":972,"x_min":0,"x_max":0,"o":"m 833 0 l 0 0 l 0 -139 l 833 -139 z "},"«":{"ha":972,"x_min":0,"x_max":0,"o":"m 694 417 l 694 556 l 833 556 l 833 694 l 278 694 l 278 556 l 139 556 l 139 417 l 0 417 l 0 278 l 139 278 l 139 139 l 278 139 l 278 0 l 833 0 l 833 139 l 694 139 l 694 278 l 556 278 l 556 417 z "},"»":{"ha":972,"x_min":0,"x_max":0,"o":"m 694 417 l 694 556 l 556 556 l 556 694 l 0 694 l 0 556 l 139 556 l 139 417 l 278 417 l 278 278 l 139 278 l 139 139 l 0 139 l 0 0 l 556 0 l 556 139 l 694 139 l 694 278 l 833 278 l 833 417 z "},"\"":{"ha":833,"x_min":0,"x_max":0,"o":"m 694 972 l 139 972 l 139 694 l 0 694 l 0 556 l 556 556 l 556 694 l 694 694 z "},"'":{"ha":556,"x_min":0,"x_max":0,"o":"m 417 972 l 139 972 l 139 694 l 0 694 l 0 556 l 278 556 l 278 694 l 417 694 z "}," ":{"ha":556,"x_min":0,"x_max":0,"o":""},"¢":{"ha":833,"x_min":0,"x_max":0,"o":"m 278 417 l 694 417 l 694 556 l 556 556 l 556 694 l 278 694 l 278 556 l 139 556 l 139 417 l 0 417 l 0 278 l 139 278 l 139 139 l 278 139 l 278 0 l 556 0 l 556 139 l 694 139 l 694 278 l 278 278 z "},"¤":{"ha":694,"x_min":0,"x_max":0,"o":"m 556 556 l 556 694 l 0 694 l 0 556 l 139 556 l 139 417 l 0 417 l 0 278 l 556 278 l 556 417 l 417 417 l 417 556 z "},"$":{"ha":972,"x_min":0,"x_max":0,"o":"m 278 694 l 833 694 l 833 833 l 556 833 l 556 972 l 278 972 l 278 833 l 139 833 l 139 694 l 0 694 l 0 556 l 139 556 l 139 417 l 556 417 l 556 278 l 0 278 l 0 139 l 278 139 l 278 0 l 556 0 l 556 139 l 694 139 l 694 278 l 833 278 l 833 417 l 694 417 l 694 556 l 278 556 z "},"ƒ":{"ha":972,"x_min":0,"x_max":0,"o":"m 694 833 l 694 972 l 417 972 l 417 833 l 278 833 l 278 556 l 139 556 l 139 417 l 278 417 l 278 278 l 0 278 l 0 139 l 139 139 l 139 0 l 417 0 l 417 139 l 556 139 l 556 417 l 694 417 l 694 556 l 556 556 l 556 694 l 833 694 l 833 833 z "},"£":{"ha":972,"x_min":0,"x_max":0,"o":"m 556 694 l 833 694 l 833 833 l 694 833 l 694 972 l 278 972 l 278 833 l 139 833 l 139 556 l 0 556 l 0 417 l 139 417 l 139 139 l 0 139 l 0 0 l 833 0 l 833 139 l 417 139 l 417 417 l 694 417 l 694 556 l 417 556 l 417 833 l 556 833 z "},"+":{"ha":972,"x_min":0,"x_max":0,"o":"m 833 556 l 556 556 l 556 833 l 278 833 l 278 556 l 0 556 l 0 417 l 278 417 l 278 139 l 556 139 l 556 417 l 833 417 z "},"÷":{"ha":972,"x_min":0,"x_max":0,"o":"m 556 694 l 556 833 l 278 833 l 278 694 z m 833 556 l 0 556 l 0 417 l 833 417 z m 278 278 l 278 139 l 556 139 l 556 278 z "},"=":{"ha":972,"x_min":0,"x_max":0,"o":"m 833 694 l 0 694 l 0 556 l 833 556 z m 833 278 l 0 278 l 0 139 l 833 139 z "},">":{"ha":833,"x_min":0,"x_max":0,"o":"m 556 556 l 556 694 l 417 694 l 417 833 l 278 833 l 278 972 l 0 972 l 0 833 l 139 833 l 139 694 l 278 694 l 278 556 l 417 556 l 417 417 l 278 417 l 278 278 l 139 278 l 139 139 l 0 139 l 0 0 l 278 0 l 278 139 l 417 139 l 417 278 l 556 278 l 556 417 l 694 417 l 694 556 z "},"<":{"ha":833,"x_min":0,"x_max":0,"o":"m 417 556 l 417 694 l 556 694 l 556 833 l 694 833 l 694 972 l 417 972 l 417 833 l 278 833 l 278 694 l 139 694 l 139 556 l 0 556 l 0 417 l 139 417 l 139 278 l 278 278 l 278 139 l 417 139 l 417 0 l 694 0 l 694 139 l 556 139 l 556 278 l 417 278 l 417 417 l 278 417 l 278 556 z "},"±":{"ha":972,"x_min":0,"x_max":0,"o":"m 278 556 l 278 278 l 556 278 l 556 556 l 694 556 l 694 694 l 556 694 l 556 972 l 278 972 l 278 694 l 0 694 l 0 556 z m 833 139 l 0 139 l 0 0 l 833 0 z "},"≈":{"ha":1111,"x_min":0,"x_max":0,"o":"m 972 833 l 694 833 l 694 694 l 556 694 l 556 833 l 139 833 l 139 694 l 0 694 l 0 556 l 278 556 l 278 694 l 417 694 l 417 556 l 833 556 l 833 694 l 972 694 z m 694 417 l 694 278 l 556 278 l 556 417 l 139 417 l 139 278 l 0 278 l 0 139 l 278 139 l 278 278 l 417 278 l 417 139 l 833 139 l 833 278 l 972 278 l 972 417 z "},"~":{"ha":1111,"x_min":0,"x_max":0,"o":"m 972 972 l 694 972 l 694 833 l 556 833 l 556 972 l 139 972 l 139 833 l 0 833 l 0 694 l 278 694 l 278 833 l 417 833 l 417 694 l 833 694 l 833 833 l 972 833 z "},"¬":{"ha":972,"x_min":0,"x_max":0,"o":"m 833 417 l 0 417 l 0 278 l 556 278 l 556 139 l 833 139 z "},"∞":{"ha":1250,"x_min":0,"x_max":0,"o":"m 972 556 l 972 694 l 139 694 l 139 556 l 0 556 l 0 278 l 139 278 l 139 139 l 972 139 l 972 278 l 1111 278 l 1111 556 z m 278 278 l 278 556 l 417 556 l 417 278 z m 694 278 l 694 556 l 833 556 l 833 278 z "},"∑":{"ha":972,"x_min":0,"x_max":0,"o":"m 833 972 l 0 972 l 0 694 l 139 694 l 139 556 l 278 556 l 278 417 l 139 417 l 139 278 l 0 278 l 0 0 l 833 0 l 833 278 l 556 278 l 556 139 l 278 139 l 278 278 l 417 278 l 417 417 l 556 417 l 556 556 l 417 556 l 417 694 l 278 694 l 278 833 l 556 833 l 556 694 l 833 694 z "},"√":{"ha":1250,"x_min":0,"x_max":0,"o":"m 1111 972 l 556 972 l 556 278 l 417 278 l 417 556 l 0 556 l 0 417 l 139 417 l 139 278 l 278 278 l 278 139 l 417 139 l 417 0 l 833 0 l 833 833 l 1111 833 z "},"%":{"ha":972,"x_min":0,"x_max":0,"o":"m 833 972 l 556 972 l 556 833 l 417 833 l 417 556 l 278 556 l 278 417 l 139 417 l 139 139 l 0 139 l 0 0 l 278 0 l 278 139 l 417 139 l 417 417 l 556 417 l 556 556 l 694 556 l 694 833 l 833 833 z m 278 694 l 278 972 l 0 972 l 0 694 z m 556 278 l 556 0 l 833 0 l 833 278 z "},"☺":{"ha":1250,"x_min":0,"x_max":0,"o":"m 139 833 l 972 833 l 972 972 l 139 972 z m 139 0 l 139 833 l 0 833 l 0 0 z m 972 833 l 972 0 l 1111 0 l 1111 833 z m 417 694 l 278 694 l 278 556 l 417 556 z m 694 556 l 833 556 l 833 694 l 694 694 z m 833 417 l 278 417 l 278 278 l 417 278 l 417 139 l 694 139 l 694 278 l 833 278 z m 972 0 l 139 0 l 139 -139 l 972 -139 z "},"☻":{"ha":1250,"x_min":0,"x_max":0,"o":"m 972 833 l 972 972 l 139 972 l 139 833 l 0 833 l 0 0 l 139 0 l 139 -139 l 972 -139 l 972 0 l 1111 0 l 1111 833 z m 278 694 l 417 694 l 417 556 l 278 556 z m 833 556 l 694 556 l 694 694 l 833 694 z m 833 278 l 694 278 l 694 139 l 417 139 l 417 278 l 278 278 l 278 417 l 833 417 z "},"☼":{"ha":1250,"x_min":0,"x_max":0,"o":"m 0 972 l 0 833 l 139 833 l 139 972 z m 694 694 l 694 972 l 417 972 l 417 694 l 278 694 l 278 556 l 0 556 l 0 278 l 278 278 l 278 139 l 417 139 l 417 -139 l 694 -139 l 694 139 l 833 139 l 833 278 l 1111 278 l 1111 556 l 833 556 l 833 694 z m 1111 972 l 972 972 l 972 833 l 1111 833 z m 139 833 l 139 694 l 278 694 l 278 833 z m 972 833 l 833 833 l 833 694 l 972 694 z m 694 556 l 694 278 l 417 278 l 417 556 z m 139 0 l 278 0 l 278 139 l 139 139 z m 972 0 l 972 139 l 833 139 l 833 0 z m 0 -139 l 139 -139 l 139 0 l 0 0 z m 1111 -139 l 1111 0 l 972 0 l 972 -139 z "},"♀":{"ha":972,"x_min":0,"x_max":0,"o":"m 694 833 l 694 972 l 139 972 l 139 833 l 0 833 l 0 417 l 139 417 l 139 278 l 278 278 l 278 139 l 139 139 l 139 0 l 278 0 l 278 -139 l 556 -139 l 556 0 l 694 0 l 694 139 l 556 139 l 556 278 l 694 278 l 694 417 l 833 417 l 833 833 z m 556 417 l 278 417 l 278 833 l 556 833 z "},"♂":{"ha":1250,"x_min":0,"x_max":0,"o":"m 1111 972 l 556 972 l 556 833 l 694 833 l 694 694 l 556 694 l 556 556 l 139 556 l 139 417 l 0 417 l 0 0 l 139 0 l 139 -139 l 694 -139 l 694 0 l 833 0 l 833 556 l 972 556 l 972 417 l 1111 417 z m 556 0 l 278 0 l 278 417 l 556 417 z "},"♠":{"ha":1111,"x_min":0,"x_max":0,"o":"m 833 417 l 833 556 l 694 556 l 694 694 l 556 694 l 556 972 l 417 972 l 417 694 l 278 694 l 278 556 l 139 556 l 139 417 l 0 417 l 0 278 l 139 278 l 139 139 l 278 139 l 278 0 l 139 0 l 139 -139 l 833 -139 l 833 0 l 694 0 l 694 139 l 833 139 l 833 278 l 972 278 l 972 417 z "},"♣":{"ha":1111,"x_min":0,"x_max":0,"o":"m 972 556 l 694 556 l 694 694 l 833 694 l 833 833 l 694 833 l 694 972 l 278 972 l 278 833 l 139 833 l 139 694 l 278 694 l 278 556 l 0 556 l 0 278 l 139 278 l 139 139 l 278 139 l 278 0 l 139 0 l 139 -139 l 833 -139 l 833 0 l 694 0 l 694 139 l 833 139 l 833 278 l 972 278 z "},"♥":{"ha":1111,"x_min":0,"x_max":0,"o":"m 833 833 l 833 972 l 556 972 l 556 833 l 417 833 l 417 972 l 139 972 l 139 833 l 0 833 l 0 417 l 139 417 l 139 278 l 278 278 l 278 139 l 417 139 l 417 0 l 556 0 l 556 139 l 694 139 l 694 278 l 833 278 l 833 417 l 972 417 l 972 833 z "},"♦":{"ha":1111,"x_min":0,"x_max":0,"o":"m 833 556 l 833 694 l 694 694 l 694 833 l 556 833 l 556 972 l 417 972 l 417 833 l 278 833 l 278 694 l 139 694 l 139 556 l 0 556 l 0 417 l 139 417 l 139 278 l 278 278 l 278 139 l 417 139 l 417 0 l 556 0 l 556 139 l 694 139 l 694 278 l 833 278 l 833 417 l 972 417 l 972 556 z "},"@":{"ha":1111,"x_min":0,"x_max":0,"o":"m 833 833 l 833 972 l 139 972 l 139 833 l 0 833 l 0 139 l 139 139 l 139 0 l 833 0 l 833 139 l 278 139 l 278 278 l 972 278 l 972 833 z m 278 833 l 694 833 l 694 694 l 278 694 z "},"&":{"ha":972,"x_min":0,"x_max":0,"o":"m 694 417 l 833 417 l 833 556 l 556 556 l 556 694 l 694 694 l 694 833 l 556 833 l 556 972 l 278 972 l 278 833 l 139 833 l 139 694 l 278 694 l 278 556 l 139 556 l 139 417 l 0 417 l 0 139 l 139 139 l 139 0 l 833 0 l 833 139 l 694 139 z m 278 139 l 278 278 l 417 278 l 417 139 z "},"¶":{"ha":1250,"x_min":0,"x_max":0,"o":"m 1111 972 l 139 972 l 139 833 l 0 833 l 0 556 l 139 556 l 139 417 l 417 417 l 417 0 l 694 0 l 694 833 l 833 833 l 833 0 l 1111 0 z m 278 556 l 278 833 l 417 833 l 417 556 z "},"§":{"ha":972,"x_min":0,"x_max":0,"o":"m 278 833 l 833 833 l 833 972 l 139 972 l 139 833 l 0 833 l 0 694 l 139 694 l 139 556 l 0 556 l 0 417 l 139 417 l 139 278 l 556 278 l 556 139 l 0 139 l 0 0 l 694 0 l 694 139 l 833 139 l 833 278 l 694 278 l 694 417 l 833 417 l 833 556 l 694 556 l 694 694 l 278 694 z m 278 556 l 556 556 l 556 417 l 278 417 z "},"®":{"ha":972,"x_min":0,"x_max":0,"o":"m 278 556 l 278 278 l 417 278 l 417 417 l 556 417 l 556 556 l 694 556 l 694 694 l 139 694 l 139 556 z m 556 278 l 417 278 l 417 139 l 278 139 l 278 278 l 139 278 l 139 556 l 0 556 l 0 139 l 139 139 l 139 0 l 694 0 l 694 139 l 556 139 z m 694 556 l 694 139 l 833 139 l 833 556 z "},"|":{"ha":417,"x_min":0,"x_max":0,"o":"m 278 972 l 0 972 l 0 556 l 278 556 z m 0 417 l 0 0 l 278 0 l 278 417 z "},"^":{"ha":972,"x_min":0,"x_max":0,"o":"m 694 694 l 694 833 l 556 833 l 556 972 l 278 972 l 278 833 l 139 833 l 139 694 l 0 694 l 0 556 l 278 556 l 278 694 l 556 694 l 556 556 l 833 556 l 833 694 z "},"⌂":{"ha":972,"x_min":0,"x_max":0,"o":"m 694 417 l 694 556 l 556 556 l 556 694 l 278 694 l 278 556 l 139 556 l 139 417 l 0 417 l 0 0 l 833 0 l 833 417 z m 556 139 l 278 139 l 278 417 l 556 417 z "},"¸":{"ha":694,"x_min":0,"x_max":0,"o":"m 556 0 l 278 0 l 278 -139 l 0 -139 l 0 -278 l 417 -278 l 417 -139 l 556 -139 z "}}}
